<svg width="18" height="18" viewBox="0 0 18 18" fill="none" xmlns="http://www.w3.org/2000/svg">
<path d="M17.7501 8.99996C17.7521 9.25631 17.6741 9.50691 17.5271 9.71693C17.3801 9.92695 17.1713 10.086 16.9298 10.1718L11.9735 11.9742L10.172 16.9296C10.0832 17.1689 9.92328 17.3752 9.71379 17.5209C9.5043 17.6666 9.25525 17.7447 9.00008 17.7447C8.74491 17.7447 8.49585 17.6666 8.28636 17.5209C8.07688 17.3752 7.917 17.1689 7.8282 16.9296L6.02664 11.9734L1.07039 10.1718C0.831168 10.083 0.624852 9.92315 0.479158 9.71367C0.333464 9.50418 0.255371 9.25512 0.255371 8.99996C0.255371 8.74479 0.333464 8.49573 0.479158 8.28624C0.624852 8.07676 0.831168 7.91688 1.07039 7.82808L6.02664 6.02652L7.8282 1.07027C7.917 0.831046 8.07688 0.62473 8.28636 0.479036C8.49585 0.333342 8.74491 0.255249 9.00008 0.255249C9.25525 0.255249 9.5043 0.333342 9.71379 0.479036C9.92328 0.62473 10.0832 0.831046 10.172 1.07027L11.9743 6.02652L16.9298 7.82808C17.1713 7.91396 17.3801 8.07296 17.5271 8.28298C17.6741 8.493 17.7521 8.7436 17.7501 8.99996Z" fill="#8B57C2"/>
</svg>
