<svg width="72" height="73" viewBox="0 0 72 73" fill="none" xmlns="http://www.w3.org/2000/svg">
<path d="M41.2677 36.7998C41.5556 37.0089 41.9593 36.9456 42.1604 36.652C43.7509 34.3293 44.9045 31.7338 45.5625 28.993C46.2707 26.0432 46.3909 22.9829 45.9163 19.9866C45.4418 16.9904 44.3817 14.1169 42.7966 11.5304C41.2116 8.94382 39.1326 6.69479 36.6783 4.9117C34.2241 3.12861 31.4427 1.84639 28.4929 1.13823C25.5431 0.43007 22.4827 0.309851 19.4865 0.784435C16.4903 1.25902 13.6168 2.31911 11.0303 3.90419C8.62696 5.37697 6.51505 7.27619 4.79755 9.50663C4.58046 9.78855 4.645 10.1921 4.93287 10.4012C5.22074 10.6104 5.62289 10.5459 5.84045 10.2643C7.45817 8.17061 9.44453 6.38721 11.7036 5.00285C14.1458 3.50619 16.859 2.50523 19.6881 2.05712C22.5172 1.60901 25.4069 1.72252 28.1921 2.39118C30.9773 3.05983 33.6036 4.27054 35.9209 5.95417C38.2383 7.63779 40.2013 9.76137 41.698 12.2037C43.1946 14.6459 44.1956 17.3591 44.6437 20.1882C45.0917 23.0173 44.9782 25.907 44.3095 28.6922C43.691 31.2685 42.6088 33.7087 41.1175 35.8943C40.9169 36.1882 40.9799 36.5906 41.2677 36.7998Z" fill="url(#paint0_linear_2779_530)"/>
<path d="M30.7323 36.2003C30.4444 35.9911 30.0407 36.0544 29.8396 36.348C28.2491 38.6707 27.0955 41.2662 26.4375 44.007C25.7293 46.9568 25.6091 50.0171 26.0837 53.0134C26.5582 56.0096 27.6183 58.8831 29.2034 61.4696C30.7884 64.0562 32.8674 66.3052 35.3217 68.0883C37.7759 69.8714 40.5573 71.1536 43.5071 71.8618C46.4569 72.5699 49.5173 72.6902 52.5135 72.2156C55.5098 71.741 58.3832 70.6809 60.9697 69.0958C63.373 67.623 65.4849 65.7238 67.2024 63.4934C67.4195 63.2114 67.355 62.8079 67.0671 62.5988C66.7793 62.3896 66.3771 62.4541 66.1596 62.7357C64.5418 64.8294 62.5555 66.6128 60.2964 67.9972C57.8542 69.4938 55.141 70.4948 52.3119 70.9429C49.4828 71.391 46.5931 71.2775 43.8079 70.6088C41.0227 69.9402 38.3964 68.7295 36.0791 67.0458C33.7617 65.3622 31.7987 63.2386 30.302 60.7964C28.8054 58.3541 27.8044 55.6409 27.3563 52.8118C26.9083 49.9827 27.0218 47.093 27.6905 44.3078C28.309 41.7315 29.3912 39.2913 30.8825 37.1057C31.0831 36.8118 31.0201 36.4094 30.7323 36.2003Z" fill="url(#paint1_linear_2779_530)"/>
<path d="M35.7003 41.7677C35.4911 42.0556 35.5544 42.4593 35.848 42.6604C38.1707 44.2509 40.7662 45.4045 43.507 46.0625C46.4568 46.7707 49.5171 46.8909 52.5134 46.4163C55.5096 45.9418 58.3831 44.8817 60.9696 43.2966C63.5562 41.7116 65.8052 39.6326 67.5883 37.1783C69.3714 34.7241 70.6536 31.9427 71.3618 28.9929C72.0699 26.0431 72.1901 22.9827 71.7156 19.9865C71.241 16.9902 70.1809 14.1168 68.5958 11.5303C67.123 9.12695 65.2238 7.01504 62.9934 5.29754C62.7114 5.08045 62.3079 5.14498 62.0988 5.43285C61.8896 5.72072 61.9541 6.12288 62.2357 6.34043C64.3294 7.95816 66.1128 9.94451 67.4971 12.2035C68.9938 14.6458 69.9948 17.359 70.4429 20.1881C70.891 23.0172 70.7775 25.9069 70.1088 28.6921C69.4402 31.4773 68.2295 34.1036 66.5458 36.4209C64.8622 38.7383 62.7386 40.7013 60.2963 42.198C57.8541 43.6946 55.1409 44.6956 52.3118 45.1437C49.4827 45.5918 46.593 45.4782 43.8078 44.8095C41.2315 44.191 38.7913 43.1088 36.6057 41.6175C36.3118 41.4169 35.9094 41.4799 35.7003 41.7677Z" fill="url(#paint2_linear_2779_530)"/>
<path d="M36.2997 31.2323C36.5089 30.9444 36.4456 30.5407 36.152 30.3396C33.8293 28.7491 31.2338 27.5955 28.493 26.9375C25.5432 26.2293 22.4829 26.1091 19.4866 26.5837C16.4904 27.0582 13.6169 28.1183 11.0304 29.7034C8.44382 31.2884 6.19479 33.3674 4.4117 35.8217C2.62862 38.2759 1.34639 41.0573 0.638228 44.0071C-0.06993 46.9569 -0.190149 50.0173 0.284434 53.0135C0.759018 56.0098 1.81911 58.8832 3.40418 61.4697C4.87697 63.8731 6.77619 65.985 9.00662 67.7025C9.28855 67.9195 9.69207 67.855 9.90121 67.5671C10.1104 67.2793 10.0459 66.8771 9.76432 66.6596C7.6706 65.0418 5.88721 63.0555 4.50285 60.7965C3.00619 58.3542 2.00523 55.641 1.55712 52.8119C1.10901 49.9828 1.22252 47.0931 1.89118 44.3079C2.55983 41.5227 3.77054 38.8964 5.45417 36.5791C7.13779 34.2617 9.26137 32.2987 11.7036 30.802C14.1459 29.3054 16.8591 28.3044 19.6882 27.8563C22.5173 27.4083 25.407 27.5218 28.1922 28.1905C30.7685 28.809 33.2087 29.8912 35.3943 31.3825C35.6882 31.5831 36.0906 31.5201 36.2997 31.2323Z" fill="url(#paint3_linear_2779_530)"/>
<path d="M30.7323 36.7998C30.4444 37.0089 30.0407 36.9456 29.8396 36.652C28.2491 34.3293 27.0955 31.7338 26.4375 28.993C25.7293 26.0432 25.6091 22.9829 26.0837 19.9866C26.5582 16.9904 27.6183 14.1169 29.2034 11.5304C30.7884 8.94382 32.8674 6.69479 35.3217 4.9117C37.7759 3.12861 40.5573 1.84639 43.5071 1.13823C46.4569 0.43007 49.5173 0.309851 52.5135 0.784435C55.5098 1.25902 58.3832 2.31911 60.9697 3.90419C63.373 5.37697 65.4849 7.27619 67.2024 9.50663C67.4195 9.78855 67.355 10.1921 67.0671 10.4012C66.7793 10.6104 66.3771 10.5459 66.1596 10.2643C64.5418 8.17061 62.5555 6.38721 60.2964 5.00285C57.8542 3.50619 55.141 2.50523 52.3119 2.05712C49.4828 1.60901 46.5931 1.72252 43.8079 2.39118C41.0227 3.05983 38.3964 4.27054 36.0791 5.95417C33.7617 7.63779 31.7987 9.76137 30.302 12.2037C28.8054 14.6459 27.8044 17.3591 27.3563 20.1882C26.9083 23.0173 27.0218 25.907 27.6905 28.6922C28.309 31.2685 29.3912 33.7087 30.8825 35.8943C31.0831 36.1882 31.0201 36.5906 30.7323 36.7998Z" fill="url(#paint4_linear_2779_530)"/>
<path d="M41.2677 36.2003C41.5556 35.9911 41.9593 36.0544 42.1604 36.348C43.7509 38.6707 44.9045 41.2662 45.5625 44.007C46.2707 46.9568 46.3909 50.0171 45.9163 53.0134C45.4418 56.0096 44.3817 58.8831 42.7966 61.4696C41.2116 64.0562 39.1326 66.3052 36.6783 68.0883C34.2241 69.8714 31.4427 71.1536 28.4929 71.8618C25.5431 72.5699 22.4827 72.6902 19.4865 72.2156C16.4903 71.741 13.6168 70.6809 11.0303 69.0958C8.62696 67.623 6.51506 65.7238 4.79756 63.4934C4.58047 63.2114 4.645 62.8079 4.93287 62.5988C5.22074 62.3896 5.62289 62.4541 5.84045 62.7357C7.45817 64.8294 9.44453 66.6128 11.7036 67.9972C14.1458 69.4938 16.859 70.4948 19.6881 70.9429C22.5172 71.391 25.4069 71.2775 28.1921 70.6088C30.9773 69.9402 33.6036 68.7295 35.9209 67.0458C38.2383 65.3622 40.2013 63.2386 41.698 60.7964C43.1946 58.3541 44.1956 55.6409 44.6437 52.8118C45.0917 49.9827 44.9782 47.093 44.3095 44.3078C43.691 41.7315 42.6088 39.2913 41.1175 37.1057C40.9169 36.8118 40.9799 36.4094 41.2677 36.2003Z" fill="url(#paint5_linear_2779_530)"/>
<path d="M36.2997 41.7677C36.5089 42.0556 36.4456 42.4593 36.152 42.6604C33.8293 44.2509 31.2338 45.4045 28.493 46.0625C25.5433 46.7707 22.4829 46.8909 19.4866 46.4163C16.4904 45.9418 13.617 44.8817 11.0304 43.2966C8.44384 41.7116 6.19481 39.6326 4.41172 37.1783C2.62863 34.7241 1.3464 31.9427 0.638246 28.9929C-0.0699121 26.0431 -0.190131 22.9827 0.284453 19.9865C0.759037 16.9902 1.81913 14.1168 3.4042 11.5303C4.87699 9.12695 6.77621 7.01504 9.00664 5.29754C9.28857 5.08045 9.69209 5.14498 9.90123 5.43285C10.1104 5.72072 10.0459 6.12288 9.76434 6.34043C7.67062 7.95816 5.88723 9.94451 4.50287 12.2035C3.00621 14.6458 2.00525 17.359 1.55714 20.1881C1.10902 23.0172 1.22254 25.9069 1.89119 28.6921C2.55985 31.4773 3.77056 34.1036 5.45418 36.4209C7.13781 38.7383 9.26139 40.7013 11.7037 42.198C14.1459 43.6946 16.8591 44.6956 19.6882 45.1437C22.5173 45.5918 25.407 45.4782 28.1922 44.8095C30.7685 44.191 33.2087 43.1088 35.3943 41.6175C35.6882 41.4169 36.0906 41.4799 36.2997 41.7677Z" fill="url(#paint6_linear_2779_530)"/>
<path d="M35.7003 31.2323C35.4911 30.9444 35.5544 30.5407 35.848 30.3396C38.1707 28.7491 40.7662 27.5955 43.507 26.9375C46.4567 26.2293 49.5171 26.1091 52.5134 26.5837C55.5096 27.0582 58.383 28.1183 60.9696 29.7034C63.5562 31.2884 65.8052 33.3674 67.5883 35.8217C69.3714 38.2759 70.6536 41.0573 71.3618 44.0071C72.0699 46.9569 72.1901 50.0173 71.7156 53.0135C71.241 56.0098 70.1809 58.8832 68.5958 61.4697C67.123 63.8731 65.2238 65.985 62.9934 67.7025C62.7114 67.9195 62.3079 67.855 62.0988 67.5671C61.8896 67.2793 61.9541 66.8771 62.2357 66.6596C64.3294 65.0418 66.1128 63.0555 67.4971 60.7965C68.9938 58.3542 69.9948 55.641 70.4429 52.8119C70.891 49.9828 70.7775 47.0931 70.1088 44.3079C69.4402 41.5227 68.2295 38.8964 66.5458 36.5791C64.8622 34.2617 62.7386 32.2987 60.2963 30.802C57.8541 29.3054 55.1409 28.3044 52.3118 27.8563C49.4827 27.4083 46.593 27.5218 43.8078 28.1905C41.2315 28.809 38.7913 29.8912 36.6057 31.3825C36.3118 31.5831 35.9094 31.5201 35.7003 31.2323Z" fill="url(#paint7_linear_2779_530)"/>
<defs>
<linearGradient id="paint0_linear_2779_530" x1="36" y1="0.5" x2="36" y2="72.5" gradientUnits="userSpaceOnUse">
<stop stop-color="#9567B0"/>
<stop offset="1" stop-color="#DC8887"/>
</linearGradient>
<linearGradient id="paint1_linear_2779_530" x1="36" y1="0.5" x2="36" y2="72.5" gradientUnits="userSpaceOnUse">
<stop stop-color="#9567B0"/>
<stop offset="1" stop-color="#DC8887"/>
</linearGradient>
<linearGradient id="paint2_linear_2779_530" x1="36" y1="0.5" x2="36" y2="72.5" gradientUnits="userSpaceOnUse">
<stop stop-color="#9567B0"/>
<stop offset="1" stop-color="#DC8887"/>
</linearGradient>
<linearGradient id="paint3_linear_2779_530" x1="36" y1="0.5" x2="36" y2="72.5" gradientUnits="userSpaceOnUse">
<stop stop-color="#9567B0"/>
<stop offset="1" stop-color="#DC8887"/>
</linearGradient>
<linearGradient id="paint4_linear_2779_530" x1="36" y1="0.5" x2="36" y2="72.5" gradientUnits="userSpaceOnUse">
<stop stop-color="#9567B0"/>
<stop offset="1" stop-color="#DC8887"/>
</linearGradient>
<linearGradient id="paint5_linear_2779_530" x1="36" y1="0.5" x2="36" y2="72.5" gradientUnits="userSpaceOnUse">
<stop stop-color="#9567B0"/>
<stop offset="1" stop-color="#DC8887"/>
</linearGradient>
<linearGradient id="paint6_linear_2779_530" x1="36" y1="0.5" x2="36" y2="72.5" gradientUnits="userSpaceOnUse">
<stop stop-color="#9567B0"/>
<stop offset="1" stop-color="#DC8887"/>
</linearGradient>
<linearGradient id="paint7_linear_2779_530" x1="36" y1="0.5" x2="36" y2="72.5" gradientUnits="userSpaceOnUse">
<stop stop-color="#9567B0"/>
<stop offset="1" stop-color="#DC8887"/>
</linearGradient>
</defs>
</svg>
