<svg width="72" height="73" viewBox="0 0 72 73" fill="none" xmlns="http://www.w3.org/2000/svg">
<path d="M72 36.6659C72 27.1621 68.2072 18.0476 61.4558 11.3274C54.7045 4.60717 45.5478 0.8318 36 0.831799C26.4522 0.831798 17.2955 4.60717 10.5442 11.3274C3.79285 18.0476 4.5889e-06 27.1621 3.14722e-06 36.6659H1.44C1.44 27.5423 5.08114 18.7923 11.5624 12.3409C18.0437 5.88951 26.8341 2.26516 36 2.26516C45.1659 2.26516 53.9564 5.88952 60.4376 12.3409C66.9189 18.7923 70.56 27.5423 70.56 36.6659H72Z" fill="url(#paint0_linear_2779_878)"/>
<path d="M72 36.3341C72 45.8379 68.2072 54.9524 61.4558 61.6726C54.7045 68.3928 45.5478 72.1682 36 72.1682C26.4522 72.1682 17.2955 68.3928 10.5442 61.6726C3.79285 54.9524 4.5889e-06 45.8379 3.14722e-06 36.3341H1.44C1.44 45.4578 5.08114 54.2077 11.5624 60.6591C18.0437 67.1105 26.8341 70.7348 36 70.7348C45.1659 70.7348 53.9564 67.1105 60.4376 60.6591C66.9189 54.2077 70.56 45.4577 70.56 36.3341H72Z" fill="url(#paint1_linear_2779_878)"/>
<path d="M6.29444e-06 1.82718C5.45974e-06 11.331 3.79285 20.4455 10.5442 27.1657C17.2955 33.8859 26.4522 37.6613 36 37.6613C45.5478 37.6613 54.7045 33.8859 61.4558 27.1657C68.2072 20.4455 72 11.331 72 1.8272L70.56 1.8272C70.56 10.9508 66.9189 19.7008 60.4376 26.1522C53.9563 32.6036 45.1659 36.2279 36 36.2279C26.8341 36.2279 18.0436 32.6036 11.5624 26.1522C5.08114 19.7008 1.44001 10.9508 1.44001 1.82718L6.29444e-06 1.82718Z" fill="url(#paint2_linear_2779_878)"/>
<path d="M6.29444e-06 71.1728C5.45974e-06 61.669 3.79285 52.5545 10.5442 45.8343C17.2955 39.1141 26.4522 35.3387 36 35.3387C45.5478 35.3387 54.7045 39.1141 61.4558 45.8343C68.2072 52.5545 72 61.669 72 71.1728H70.56C70.56 62.0492 66.9189 53.2992 60.4376 46.8478C53.9563 40.3964 45.1659 36.7721 36 36.7721C26.8341 36.7721 18.0436 40.3964 11.5624 46.8478C5.08114 53.2992 1.44001 62.0492 1.44001 71.1728H6.29444e-06Z" fill="url(#paint3_linear_2779_878)"/>
<path d="M0 72.5C9.54779 72.5 18.7045 68.7246 25.4558 62.0044C32.2071 55.2842 36 46.1697 36 36.6659C36 27.1621 32.2072 18.0476 25.4558 11.3274C18.7045 4.60717 9.5478 0.831799 8.23348e-06 0.831797L8.17054e-06 2.26516C9.16589 2.26516 17.9564 5.88952 24.4376 12.3409C30.9189 18.7923 34.56 27.5423 34.56 36.6659C34.56 45.7895 30.9189 54.5395 24.4376 60.9909C17.9564 67.4423 9.16588 71.0666 6.29445e-08 71.0666L0 72.5Z" fill="url(#paint4_linear_2779_878)"/>
<path d="M72 72.1682C62.4522 72.1682 53.2955 68.3928 46.5442 61.6726C39.7929 54.9524 36 45.8379 36 36.3341C36 26.8303 39.7928 17.7158 46.5442 10.9956C53.2955 4.27537 62.4522 0.500002 72 0.5V1.93336C62.8341 1.93337 54.0436 5.55772 47.5624 12.0091C41.0811 18.4605 37.44 27.2105 37.44 36.3341C37.44 45.4577 41.0811 54.2077 47.5624 60.6591C54.0437 67.1105 62.8341 70.7348 72 70.7348V72.1682Z" fill="url(#paint5_linear_2779_878)"/>
<defs>
<linearGradient id="paint0_linear_2779_878" x1="36" y1="0.5" x2="36" y2="72.5" gradientUnits="userSpaceOnUse">
<stop stop-color="#9567B0"/>
<stop offset="1" stop-color="#DC8887"/>
</linearGradient>
<linearGradient id="paint1_linear_2779_878" x1="36" y1="0.5" x2="36" y2="72.5" gradientUnits="userSpaceOnUse">
<stop stop-color="#9567B0"/>
<stop offset="1" stop-color="#DC8887"/>
</linearGradient>
<linearGradient id="paint2_linear_2779_878" x1="36" y1="0.5" x2="36" y2="72.5" gradientUnits="userSpaceOnUse">
<stop stop-color="#9567B0"/>
<stop offset="1" stop-color="#DC8887"/>
</linearGradient>
<linearGradient id="paint3_linear_2779_878" x1="36" y1="0.5" x2="36" y2="72.5" gradientUnits="userSpaceOnUse">
<stop stop-color="#9567B0"/>
<stop offset="1" stop-color="#DC8887"/>
</linearGradient>
<linearGradient id="paint4_linear_2779_878" x1="36" y1="0.5" x2="36" y2="72.5" gradientUnits="userSpaceOnUse">
<stop stop-color="#9567B0"/>
<stop offset="1" stop-color="#DC8887"/>
</linearGradient>
<linearGradient id="paint5_linear_2779_878" x1="36" y1="0.5" x2="36" y2="72.5" gradientUnits="userSpaceOnUse">
<stop stop-color="#9567B0"/>
<stop offset="1" stop-color="#DC8887"/>
</linearGradient>
</defs>
</svg>
