<svg width="290" height="565" viewBox="0 0 290 565" fill="none" xmlns="http://www.w3.org/2000/svg">
<path fill-rule="evenodd" clip-rule="evenodd" d="M564 282.5C564 437.968 437.968 564 282.5 564C127.032 564 1 437.968 1 282.5C1 127.032 127.032 1 282.5 1C437.968 1 564 127.032 564 282.5ZM565 282.5C565 438.52 438.52 565 282.5 565C126.48 565 0 438.52 0 282.5C0 126.48 126.48 0 282.5 0C438.52 0 565 126.48 565 282.5ZM404.982 282.244C404.982 349.748 350.259 404.471 282.756 404.471C215.252 404.471 160.529 349.748 160.529 282.244C160.529 214.741 215.252 160.018 282.756 160.018C350.259 160.018 404.982 214.741 404.982 282.244ZM405.982 282.244C405.982 350.3 350.812 405.471 282.756 405.471C214.7 405.471 159.529 350.3 159.529 282.244C159.529 214.188 214.7 159.018 282.756 159.018C350.812 159.018 405.982 214.188 405.982 282.244ZM282.5 508.267C407.188 508.267 508.267 407.188 508.267 282.5C508.267 157.812 407.188 56.733 282.5 56.733C157.812 56.733 56.733 157.812 56.733 282.5C56.733 407.188 157.812 508.267 282.5 508.267ZM282.5 509.267C407.74 509.267 509.267 407.74 509.267 282.5C509.267 157.26 407.74 55.733 282.5 55.733C157.26 55.733 55.733 157.26 55.733 282.5C55.733 407.74 157.26 509.267 282.5 509.267ZM447.421 282.5C447.421 373.583 373.583 447.421 282.5 447.421C191.417 447.421 117.579 373.583 117.579 282.5C117.579 191.417 191.417 117.579 282.5 117.579C373.583 117.579 447.421 191.417 447.421 282.5ZM448.421 282.5C448.421 374.136 374.135 448.421 282.5 448.421C190.864 448.421 116.579 374.136 116.579 282.5C116.579 190.864 190.864 116.579 282.5 116.579C374.135 116.579 448.421 190.864 448.421 282.5Z" fill="#373737"/>
</svg>
